<svg width="226" height="87" viewBox="0 0 226 87" fill="none" xmlns="http://www.w3.org/2000/svg">
<g clip-path="url(#clip0_601_71)">
<path fill-rule="evenodd" clip-rule="evenodd" d="M50.1478 12.4877C50.1478 12.2589 50.0607 12.0395 49.9057 11.8777C49.7506 11.7159 49.5404 11.625 49.3212 11.625H26.176C23.7644 11.625 21.4517 12.6248 19.7465 14.4045C18.0412 16.1842 17.0833 18.598 17.0833 21.1149V69.4268C17.0833 71.9437 18.0412 74.3575 19.7465 76.1372C21.4517 77.9169 23.7644 78.9167 26.176 78.9167H59.2405C61.6521 78.9167 63.9648 77.9169 65.67 76.1372C67.3753 74.3575 68.3333 71.9437 68.3333 69.4268V35.4255C68.3333 35.1967 68.2462 34.9773 68.0911 34.8155C67.9361 34.6537 67.7259 34.5628 67.5066 34.5628H52.6276C51.9699 34.5628 51.3392 34.2902 50.8741 33.8048C50.409 33.3194 50.1478 32.6611 50.1478 31.9747V12.4877ZM52.6276 46.1335C53.2853 46.1335 53.9161 46.4062 54.3811 46.8916C54.8462 47.377 55.1074 48.0353 55.1074 48.7217C55.1074 49.4081 54.8462 50.0664 54.3811 50.5518C53.9161 51.0372 53.2853 51.3098 52.6276 51.3098H32.7889C32.1312 51.3098 31.5004 51.0372 31.0354 50.5518C30.5703 50.0664 30.3091 49.4081 30.3091 48.7217C30.3091 48.0353 30.5703 47.377 31.0354 46.8916C31.5004 46.4062 32.1312 46.1335 32.7889 46.1335H52.6276ZM52.6276 59.937C53.2853 59.937 53.9161 60.2096 54.3811 60.695C54.8462 61.1804 55.1074 61.8387 55.1074 62.5251C55.1074 63.2115 54.8462 63.8698 54.3811 64.3552C53.9161 64.8406 53.2853 65.1133 52.6276 65.1133H32.7889C32.1312 65.1133 31.5004 64.8406 31.0354 64.3552C30.5703 63.8698 30.3091 63.2115 30.3091 62.5251C30.3091 61.8387 30.5703 61.1804 31.0354 60.695C31.5004 60.2096 32.1312 59.937 32.7889 59.937H52.6276Z" fill="#1E3984"/>
<path d="M53.8125 11.0017C53.8125 10.35 54.4719 9.93563 54.9605 10.3429C55.3739 10.69 55.7463 11.0938 56.0641 11.5542L66.3585 26.4185C66.5908 26.7585 66.338 27.1977 65.9348 27.1977H54.6667C54.4401 27.1977 54.2229 27.1044 54.0627 26.9384C53.9025 26.7723 53.8125 26.5471 53.8125 26.3123V11.0017Z" fill="#1E3984"/>
<path d="M113.091 27.0909C112.818 24.7879 111.712 23 109.773 21.7273C107.833 20.4545 105.455 19.8182 102.636 19.8182C100.576 19.8182 98.7727 20.1515 97.2273 20.8182C95.697 21.4848 94.5 22.4015 93.6364 23.5682C92.7879 24.7348 92.3636 26.0606 92.3636 27.5455C92.3636 28.7879 92.6591 29.8561 93.25 30.75C93.8561 31.6288 94.6288 32.3636 95.5682 32.9545C96.5076 33.5303 97.4924 34.0076 98.5227 34.3864C99.553 34.75 100.5 35.0455 101.364 35.2727L106.091 36.5455C107.303 36.8636 108.652 37.303 110.136 37.8636C111.636 38.4242 113.068 39.1894 114.432 40.1591C115.811 41.1136 116.947 42.3409 117.841 43.8409C118.735 45.3409 119.182 47.1818 119.182 49.3636C119.182 51.8788 118.523 54.1515 117.205 56.1818C115.902 58.2121 113.992 59.8258 111.477 61.0227C108.977 62.2197 105.939 62.8182 102.364 62.8182C99.0303 62.8182 96.1439 62.2803 93.7045 61.2045C91.2803 60.1288 89.3712 58.6288 87.9773 56.7045C86.5985 54.7803 85.8182 52.5455 85.6364 50H91.4545C91.6061 51.7576 92.197 53.2121 93.2273 54.3636C94.2727 55.5 95.5909 56.3485 97.1818 56.9091C98.7879 57.4545 100.515 57.7273 102.364 57.7273C104.515 57.7273 106.447 57.3788 108.159 56.6818C109.871 55.9697 111.227 54.9848 112.227 53.7273C113.227 52.4545 113.727 50.9697 113.727 49.2727C113.727 47.7273 113.295 46.4697 112.432 45.5C111.568 44.5303 110.432 43.7424 109.023 43.1364C107.614 42.5303 106.091 42 104.455 41.5455L98.7273 39.9091C95.0909 38.8636 92.2121 37.3712 90.0909 35.4318C87.9697 33.4924 86.9091 30.9545 86.9091 27.8182C86.9091 25.2121 87.6136 22.9394 89.0227 21C90.447 19.0455 92.3561 17.5303 94.75 16.4545C97.1591 15.3636 99.8485 14.8182 102.818 14.8182C105.818 14.8182 108.485 15.3561 110.818 16.4318C113.152 17.4924 115 18.947 116.364 20.7955C117.742 22.6439 118.47 24.7424 118.545 27.0909H113.091ZM160.267 30C159.767 28.4697 159.108 27.0985 158.29 25.8864C157.487 24.6591 156.525 23.6136 155.403 22.75C154.297 21.8864 153.04 21.2273 151.631 20.7727C150.222 20.3182 148.676 20.0909 146.994 20.0909C144.237 20.0909 141.729 20.803 139.472 22.2273C137.214 23.6515 135.419 25.75 134.085 28.5227C132.752 31.2955 132.085 34.697 132.085 38.7273C132.085 42.7576 132.759 46.1591 134.108 48.9318C135.456 51.7045 137.282 53.803 139.585 55.2273C141.888 56.6515 144.479 57.3636 147.358 57.3636C150.025 57.3636 152.373 56.7955 154.403 55.6591C156.449 54.5076 158.04 52.8864 159.176 50.7955C160.328 48.6894 160.903 46.2121 160.903 43.3636L162.631 43.7273H148.631V38.7273H166.358V43.7273C166.358 47.5606 165.54 50.8939 163.903 53.7273C162.282 56.5606 160.04 58.7576 157.176 60.3182C154.328 61.8636 151.055 62.6364 147.358 62.6364C143.237 62.6364 139.616 61.6667 136.494 59.7273C133.388 57.7879 130.964 55.0303 129.222 51.4545C127.494 47.8788 126.631 43.6364 126.631 38.7273C126.631 35.0455 127.123 31.7348 128.108 28.7955C129.108 25.8409 130.517 23.3258 132.335 21.25C134.153 19.1742 136.305 17.5833 138.79 16.4773C141.275 15.3712 144.009 14.8182 146.994 14.8182C149.449 14.8182 151.737 15.1894 153.858 15.9318C155.994 16.6591 157.896 17.697 159.562 19.0455C161.244 20.3788 162.646 21.9773 163.767 23.8409C164.888 25.6894 165.661 27.7424 166.085 30H160.267ZM201.466 27.0909C201.193 24.7879 200.087 23 198.148 21.7273C196.208 20.4545 193.83 19.8182 191.011 19.8182C188.951 19.8182 187.148 20.1515 185.602 20.8182C184.072 21.4848 182.875 22.4015 182.011 23.5682C181.163 24.7348 180.739 26.0606 180.739 27.5455C180.739 28.7879 181.034 29.8561 181.625 30.75C182.231 31.6288 183.004 32.3636 183.943 32.9545C184.883 33.5303 185.867 34.0076 186.898 34.3864C187.928 34.75 188.875 35.0455 189.739 35.2727L194.466 36.5455C195.678 36.8636 197.027 37.303 198.511 37.8636C200.011 38.4242 201.443 39.1894 202.807 40.1591C204.186 41.1136 205.322 42.3409 206.216 43.8409C207.11 45.3409 207.557 47.1818 207.557 49.3636C207.557 51.8788 206.898 54.1515 205.58 56.1818C204.277 58.2121 202.367 59.8258 199.852 61.0227C197.352 62.2197 194.314 62.8182 190.739 62.8182C187.405 62.8182 184.519 62.2803 182.08 61.2045C179.655 60.1288 177.746 58.6288 176.352 56.7045C174.973 54.7803 174.193 52.5455 174.011 50H179.83C179.981 51.7576 180.572 53.2121 181.602 54.3636C182.648 55.5 183.966 56.3485 185.557 56.9091C187.163 57.4545 188.89 57.7273 190.739 57.7273C192.89 57.7273 194.822 57.3788 196.534 56.6818C198.246 55.9697 199.602 54.9848 200.602 53.7273C201.602 52.4545 202.102 50.9697 202.102 49.2727C202.102 47.7273 201.67 46.4697 200.807 45.5C199.943 44.5303 198.807 43.7424 197.398 43.1364C195.989 42.5303 194.466 42 192.83 41.5455L187.102 39.9091C183.466 38.8636 180.587 37.3712 178.466 35.4318C176.345 33.4924 175.284 30.9545 175.284 27.8182C175.284 25.2121 175.989 22.9394 177.398 21C178.822 19.0455 180.731 17.5303 183.125 16.4545C185.534 15.3636 188.223 14.8182 191.193 14.8182C194.193 14.8182 196.86 15.3561 199.193 16.4318C201.527 17.4924 203.375 18.947 204.739 20.7955C206.117 22.6439 206.845 24.7424 206.92 27.0909H201.466Z" fill="#1E3984"/>
</g>
<defs>
<clipPath id="clip0_601_71">
<rect width="226" height="87" fill="white"/>
</clipPath>
</defs>
</svg>
