<svg width="113" height="44" viewBox="0 0 113 44" fill="none" xmlns="http://www.w3.org/2000/svg">
<g clip-path="url(#clip0_684_7)">
<path fill-rule="evenodd" clip-rule="evenodd" d="M24.4623 6.67628C24.4623 6.56323 24.4198 6.4548 24.3442 6.37486C24.2686 6.29491 24.166 6.25 24.0591 6.25H12.7687C11.5924 6.25 10.4642 6.74403 9.63237 7.62341C8.80056 8.50278 8.33325 9.69548 8.33325 10.9391V34.8109C8.33325 36.0545 8.80056 37.2472 9.63237 38.1266C10.4642 39.006 11.5924 39.5 12.7687 39.5H28.8978C30.0741 39.5 31.2023 39.006 32.0341 38.1266C32.8659 37.2472 33.3333 36.0545 33.3333 34.8109V18.0103C33.3333 17.8972 33.2908 17.7888 33.2152 17.7088C33.1395 17.6289 33.037 17.584 32.93 17.584H25.672C25.3511 17.584 25.0434 17.4493 24.8166 17.2094C24.5897 16.9696 24.4623 16.6443 24.4623 16.3051V6.67628ZM25.672 23.3013C25.9928 23.3013 26.3005 23.436 26.5273 23.6758C26.7542 23.9157 26.8816 24.241 26.8816 24.5801C26.8816 24.9193 26.7542 25.2446 26.5273 25.4844C26.3005 25.7242 25.9928 25.859 25.672 25.859H15.9945C15.6737 25.859 15.366 25.7242 15.1392 25.4844C14.9123 25.2446 14.7849 24.9193 14.7849 24.5801C14.7849 24.241 14.9123 23.9157 15.1392 23.6758C15.366 23.436 15.6737 23.3013 15.9945 23.3013H25.672ZM25.672 30.1218C25.9928 30.1218 26.3005 30.2565 26.5273 30.4964C26.7542 30.7362 26.8816 31.0615 26.8816 31.4006C26.8816 31.7398 26.7542 32.0651 26.5273 32.3049C26.3005 32.5448 25.9928 32.6795 25.672 32.6795H15.9945C15.6737 32.6795 15.366 32.5448 15.1392 32.3049C14.9123 32.0651 14.7849 31.7398 14.7849 31.4006C14.7849 31.0615 14.9123 30.7362 15.1392 30.4964C15.366 30.2565 15.6737 30.1218 15.9945 30.1218H25.672Z" fill="black"/>
<path d="M26.25 5.94199C26.25 5.61999 26.5717 5.41524 26.81 5.61649C27.0117 5.78799 27.1933 5.98749 27.3483 6.21499L32.37 13.5597C32.4833 13.7277 32.36 13.9447 32.1633 13.9447H26.6667C26.5562 13.9447 26.4502 13.8986 26.372 13.8166C26.2939 13.7345 26.25 13.6233 26.25 13.5072V5.94199Z" fill="black"/>
<path d="M57.4886 15.3636C57.3352 14.0682 56.7131 13.0625 55.6222 12.3466C54.5313 11.6307 53.1932 11.2727 51.608 11.2727C50.4489 11.2727 49.4347 11.4602 48.5653 11.8352C47.7045 12.2102 47.0313 12.7259 46.5455 13.3821C46.0682 14.0384 45.8295 14.7841 45.8295 15.6193C45.8295 16.3182 45.9957 16.919 46.3281 17.4219C46.669 17.9162 47.1037 18.3295 47.6321 18.6619C48.1605 18.9858 48.7145 19.2543 49.294 19.4673C49.8736 19.6719 50.4062 19.8381 50.892 19.9659L53.5511 20.6818C54.233 20.8608 54.9915 21.108 55.8267 21.4233C56.6705 21.7386 57.4759 22.169 58.2429 22.7145C59.0185 23.2514 59.6577 23.9418 60.1605 24.7855C60.6634 25.6293 60.9148 26.6648 60.9148 27.892C60.9148 29.3068 60.544 30.5852 59.8026 31.7273C59.0696 32.8693 57.9957 33.777 56.581 34.4503C55.1747 35.1236 53.4659 35.4602 51.4545 35.4602C49.5795 35.4602 47.956 35.1577 46.5838 34.5526C45.2202 33.9474 44.1463 33.1037 43.3622 32.0213C42.5866 30.9389 42.1477 29.6818 42.0455 28.25H45.3182C45.4034 29.2386 45.7358 30.0568 46.3153 30.7045C46.9034 31.3437 47.6449 31.821 48.5398 32.1364C49.4432 32.4432 50.4148 32.5966 51.4545 32.5966C52.6648 32.5966 53.7514 32.4006 54.7145 32.0085C55.6776 31.608 56.4403 31.054 57.0028 30.3466C57.5653 29.6307 57.8466 28.7955 57.8466 27.8409C57.8466 26.9716 57.6037 26.2642 57.1179 25.7188C56.6321 25.1733 55.9929 24.7301 55.2003 24.3892C54.4077 24.0483 53.5511 23.75 52.6307 23.4943L49.4091 22.5739C47.3636 21.9858 45.7443 21.1463 44.5511 20.0554C43.358 18.9645 42.7614 17.5369 42.7614 15.7727C42.7614 14.3068 43.1577 13.0284 43.9503 11.9375C44.7514 10.8381 45.8253 9.98579 47.1719 9.38068C48.527 8.76704 50.0398 8.46023 51.7102 8.46023C53.3977 8.46023 54.8977 8.76278 56.2102 9.3679C57.5227 9.96449 58.5625 10.7827 59.3295 11.8224C60.1051 12.8622 60.5142 14.0426 60.5568 15.3636H57.4886ZM84.0252 17C83.744 16.1392 83.3732 15.3679 82.913 14.6861C82.4613 13.9957 81.9201 13.4077 81.2894 12.9219C80.6673 12.4361 79.9599 12.0653 79.1673 11.8097C78.3746 11.554 77.5053 11.4261 76.5593 11.4261C75.0082 11.4261 73.5977 11.8267 72.3278 12.6278C71.0579 13.429 70.0479 14.6094 69.2979 16.169C68.5479 17.7287 68.1729 19.642 68.1729 21.9091C68.1729 24.1761 68.5522 26.0895 69.3107 27.6491C70.0692 29.2088 71.0962 30.3892 72.3917 31.1903C73.6871 31.9915 75.1445 32.392 76.7639 32.392C78.2639 32.392 79.5849 32.0724 80.7269 31.4332C81.8775 30.7855 82.7724 29.8736 83.4116 28.6974C84.0593 27.5128 84.3832 26.1193 84.3832 24.517L85.3548 24.7216H77.4798V21.9091H87.4514V24.7216C87.4514 26.8778 86.9911 28.7528 86.0707 30.3466C85.1587 31.9403 83.8974 33.1761 82.2866 34.054C80.6843 34.9233 78.8434 35.358 76.7639 35.358C74.4457 35.358 72.4087 34.8125 70.6531 33.7216C68.9059 32.6307 67.5423 31.0795 66.5621 29.0682C65.5906 27.0568 65.1048 24.6705 65.1048 21.9091C65.1048 19.8381 65.3817 17.9759 65.9357 16.3224C66.4982 14.6605 67.2908 13.2457 68.3136 12.0781C69.3363 10.9105 70.5465 10.0156 71.9442 9.39347C73.342 8.77131 74.8803 8.46023 76.5593 8.46023C77.94 8.46023 79.2269 8.66903 80.4201 9.08665C81.6218 9.49574 82.6914 10.0795 83.6289 10.8381C84.5749 11.5881 85.3633 12.4872 85.994 13.5355C86.6246 14.5753 87.0593 15.7301 87.2979 17H84.0252ZM107.2 15.3636C107.046 14.0682 106.424 13.0625 105.333 12.3466C104.242 11.6307 102.904 11.2727 101.319 11.2727C100.16 11.2727 99.1456 11.4602 98.2763 11.8352C97.4155 12.2102 96.7422 12.7259 96.2564 13.3821C95.7791 14.0384 95.5405 14.7841 95.5405 15.6193C95.5405 16.3182 95.7067 16.919 96.0391 17.4219C96.38 17.9162 96.8146 18.3295 97.343 18.6619C97.8714 18.9858 98.4254 19.2543 99.005 19.4673C99.5845 19.6719 100.117 19.8381 100.603 19.9659L103.262 20.6818C103.944 20.8608 104.702 21.108 105.538 21.4233C106.381 21.7386 107.187 22.169 107.954 22.7145C108.729 23.2514 109.369 23.9418 109.871 24.7855C110.374 25.6293 110.626 26.6648 110.626 27.892C110.626 29.3068 110.255 30.5852 109.513 31.7273C108.781 32.8693 107.707 33.777 106.292 34.4503C104.886 35.1236 103.177 35.4602 101.165 35.4602C99.2905 35.4602 97.6669 35.1577 96.2947 34.5526C94.9311 33.9474 93.8572 33.1037 93.0732 32.0213C92.2976 30.9389 91.8587 29.6818 91.7564 28.25H95.0291C95.1143 29.2386 95.4467 30.0568 96.0263 30.7045C96.6143 31.3437 97.3558 31.821 98.2507 32.1364C99.1541 32.4432 100.126 32.5966 101.165 32.5966C102.376 32.5966 103.462 32.4006 104.425 32.0085C105.388 31.608 106.151 31.054 106.714 30.3466C107.276 29.6307 107.558 28.7955 107.558 27.8409C107.558 26.9716 107.315 26.2642 106.829 25.7188C106.343 25.1733 105.704 24.7301 104.911 24.3892C104.119 24.0483 103.262 23.75 102.342 23.4943L99.12 22.5739C97.0746 21.9858 95.4553 21.1463 94.2621 20.0554C93.0689 18.9645 92.4723 17.5369 92.4723 15.7727C92.4723 14.3068 92.8686 13.0284 93.6612 11.9375C94.4624 10.8381 95.5362 9.98579 96.8828 9.38068C98.2379 8.76704 99.7507 8.46023 101.421 8.46023C103.109 8.46023 104.609 8.76278 105.921 9.3679C107.234 9.96449 108.273 10.7827 109.04 11.8224C109.816 12.8622 110.225 14.0426 110.268 15.3636H107.2Z" fill="black"/>
</g>
<defs>
<clipPath id="clip0_684_7">
<rect width="113" height="44" fill="white"/>
</clipPath>
</defs>
</svg>
